<svg xmlns="http://www.w3.org/2000/svg" width="64" height="64" viewBox="0 0 64 64">
  <path d="M33 7l8 16 18 3-13 13 3 18-16-8-16 8 3-18L7 26l18-3z" fill="#24182e" opacity=".25" transform="translate(1 3)"/>
  <path d="M32 4l8 17 19 3-14 13 4 19-17-9-17 9 4-19L5 24l19-3z" fill="#24182e" stroke="#24182e" stroke-width="4" stroke-linejoin="round"/>
  <path d="M32 10l6 14 15 2-11 10 3 14-13-7-13 7 3-14-11-10 15-2z" fill="#ffc744" stroke="#ffe998" stroke-width="3" stroke-linejoin="round"/>
  <path d="M24 19c4-4 9-5 14-3" fill="none" stroke="#ffffff" stroke-width="4" stroke-linecap="round" opacity=".5"/>
</svg>
