<svg xmlns="http://www.w3.org/2000/svg" width="470" height="300" viewBox="0 0 470 300">
  <defs>
    <linearGradient id="cream" x1="0" y1="0" x2="0" y2="1">
      <stop offset="0" stop-color="#fff9eb"/>
      <stop offset="1" stop-color="#fff0d5"/>
    </linearGradient>
    <linearGradient id="redFill" x1="0" y1="0" x2="1" y2="0">
      <stop offset="0" stop-color="#ff6b61"/>
      <stop offset="1" stop-color="#ff8d7b"/>
    </linearGradient>
    <filter id="drop" x="-10%" y="-15%" width="125%" height="135%">
      <feDropShadow dx="0" dy="8" stdDeviation="5" flood-color="#4b3540" flood-opacity=".22"/>
    </filter>
    <style>
      .dark{stroke:#2c2438;stroke-width:8;stroke-linejoin:round;stroke-linecap:round}
      .mid{stroke:#2c2438;stroke-width:5;stroke-linejoin:round;stroke-linecap:round}
      .slot{fill:#fff6e4;stroke:#b99f7c;stroke-width:4;stroke-dasharray:12 8;stroke-linecap:round}
    </style>
  </defs>
  <g filter="url(#drop)">
    <path d="M32 32 Q32 12 52 12 H418 Q442 12 442 36 V212 Q442 238 416 238 H136 L94 280 Q81 288 84 270 L88 238 H57 Q32 238 32 213 Z" fill="url(#cream)" class="dark"/>
    <path d="M41 34 Q41 23 55 23 H417 Q430 23 430 38 V210 Q430 224 416 224 H129 L100 252 L103 224 H58 Q42 224 42 210 Z" fill="none" stroke="#ff6a5e" stroke-width="8" stroke-linejoin="round"/>
    <path d="M60 43 C145 25 326 26 410 42" fill="none" stroke="#ffffff" stroke-width="7" stroke-linecap="round" opacity=".55"/>
    <rect x="82" y="68" width="98" height="98" rx="20" class="slot"/>
    <rect x="190" y="68" width="98" height="98" rx="20" class="slot"/>
    <rect x="298" y="68" width="98" height="98" rx="20" class="slot"/>
    <g transform="translate(64 181)">
      <circle cx="26" cy="28" r="25" fill="#ff635a" class="mid"/>
      <path d="M12 26 C12 12 28 13 26 28 C32 12 48 16 44 31 C41 44 26 51 26 51 C26 51 12 43 12 26 Z" fill="#fff5e5"/>
      <rect x="63" y="11" width="315" height="36" rx="18" fill="#2c2438"/>
      <rect x="70" y="17" width="176" height="24" rx="12" fill="url(#redFill)"/>
    </g>
  </g>
</svg>
