<svg xmlns="http://www.w3.org/2000/svg" width="1000" height="760" viewBox="0 0 1000 760">
  <rect width="1000" height="760" fill="#f8f0dd"/>
  <text x="55" y="55" font-family="Arial, sans-serif" font-size="30" font-weight="700" fill="#34243b">HUD + ORDER FORMAL V1</text>
  <text x="55" y="90" font-family="Arial, sans-serif" font-size="17" fill="#78598f">Layered production candidates based on the approved V3 style.</text>
  <g transform="translate(55 125)">
    <image href="../../../resources/ui_formal_v1/hud/hud_panel_teal.svg" width="240" height="80"/>
    <image href="../../../resources/ui_formal_v1/hud/icon_coin.svg" x="8" y="7" width="64" height="64"/>
    <image href="../../../resources/ui_formal_v1/hud/hud_panel_timer.svg" x="285" width="240" height="80"/>
    <image href="../../../resources/ui_formal_v1/hud/icon_clock.svg" x="293" y="7" width="64" height="64"/>
    <image href="../../../resources/ui_formal_v1/hud/hud_panel_teal.svg" x="570" width="240" height="80"/>
    <image href="../../../resources/ui_formal_v1/hud/icon_star.svg" x="578" y="7" width="64" height="64"/>
  </g>
  <g transform="translate(55 260)">
    <image href="../../../resources/ui_formal_v1/order/order_bubble_selected.svg" width="300" height="190"/>
    <image href="../../../resources/ui_formal_v1/order/order_item_slot.svg" x="45" y="35" width="60" height="60"/>
    <image href="../../../resources/ui_formal_v1/order/order_item_slot.svg" x="120" y="35" width="60" height="60"/>
    <image href="../../../resources/ui_formal_v1/order/heart_icon.svg" x="30" y="113" width="48" height="48"/>
    <image href="../../../resources/ui_formal_v1/order/patience_track.svg" x="66" y="124" width="190" height="28"/>
    <image href="../../../resources/ui_formal_v1/order/patience_fill_green.svg" x="72" y="130" width="142" height="14"/>
    <image href="../../../resources/ui_formal_v1/order/order_bubble_normal.svg" x="390" width="300" height="190"/>
    <image href="../../../resources/ui_formal_v1/order/order_item_slot.svg" x="435" y="35" width="60" height="60"/>
    <image href="../../../resources/ui_formal_v1/order/order_item_slot.svg" x="510" y="35" width="60" height="60"/>
    <image href="../../../resources/ui_formal_v1/order/heart_icon.svg" x="420" y="113" width="48" height="48"/>
    <image href="../../../resources/ui_formal_v1/order/patience_track.svg" x="456" y="124" width="190" height="28"/>
    <image href="../../../resources/ui_formal_v1/order/patience_fill_amber.svg" x="462" y="130" width="104" height="14"/>
  </g>
  <text x="55" y="510" font-family="Arial, sans-serif" font-size="20" font-weight="700" fill="#34243b">SEPARATE DYNAMIC PARTS</text>
  <g transform="translate(55 545)">
    <image href="../../../resources/ui_formal_v1/order/order_item_slot.svg" width="68" height="68"/>
    <image href="../../../resources/ui_formal_v1/order/heart_icon.svg" x="110" y="8" width="52" height="52"/>
    <image href="../../../resources/ui_formal_v1/order/patience_track.svg" x="210" y="20" width="190" height="28"/>
    <image href="../../../resources/ui_formal_v1/order/patience_fill_green.svg" x="445" y="25" width="180" height="18"/>
    <image href="../../../resources/ui_formal_v1/order/patience_fill_amber.svg" x="445" y="60" width="135" height="18"/>
    <image href="../../../resources/ui_formal_v1/order/patience_fill_red.svg" x="445" y="95" width="75" height="18"/>
  </g>
  <rect x="55" y="700" width="890" height="2" fill="#d9cbb9"/>
  <text x="55" y="730" font-family="Arial, sans-serif" font-size="16" fill="#78598f">No text or values are baked into the production assets.</text>
</svg>
